<?xml version="1.0" standalone="no"?>
<!DOCTYPE svg PUBLIC "-//W3C//DTD SVG 20010904//EN"
 "http://www.w3.org/TR/2001/REC-SVG-20010904/DTD/svg10.dtd">
<svg version="1.0" xmlns="http://www.w3.org/2000/svg"
 width="700.000000pt" height="700.000000pt" viewBox="0 0 700.000000 700.000000"
 preserveAspectRatio="xMidYMid meet">
<metadata>
Created by potrace 1.14, written by Peter Selinger 2001-2017
</metadata>
<g transform="translate(0.000000,700.000000) scale(0.100000,-0.100000)"
fill="#000000" stroke="none">
<path d="M3407 6124 c-1 -1 -38 -5 -82 -8 -74 -5 -200 -20 -268 -32 -16 -2
-99 -22 -184 -44 -448 -115 -846 -342 -1178 -675 -61 -60 -128 -132 -150 -160
-21 -27 -44 -54 -50 -60 -6 -5 -22 -26 -35 -45 -13 -19 -27 -37 -30 -40 -3 -3
-31 -43 -62 -90 -83 -126 -172 -291 -222 -410 -41 -100 -57 -139 -61 -150 -1
-3 -4 -12 -8 -20 -28 -70 -86 -302 -107 -430 -7 -41 -14 -84 -16 -95 -18 -91
-25 -433 -11 -578 21 -224 83 -486 169 -706 47 -121 183 -396 208 -421 3 -3
23 -32 44 -65 108 -166 325 -411 482 -546 349 -298 828 -517 1279 -584 22 -4
50 -8 63 -10 158 -26 596 -26 797 0 455 59 888 240 1254 523 76 59 89 66 135
68 28 1 59 3 69 3 16 1 16 4 -5 40 l-22 38 79 79 c139 140 256 290 369 472 55
91 148 270 175 342 8 19 20 49 26 65 51 125 103 311 139 500 8 41 25 172 31
230 7 70 7 339 0 405 -21 205 -25 237 -55 373 -41 191 -105 374 -193 561 -55
114 -173 318 -189 324 -4 2 -8 8 -8 14 0 25 -203 270 -323 390 l-49 48 22 35
22 35 -66 0 c-35 0 -67 4 -71 9 -3 6 -43 38 -88 73 -397 306 -839 480 -1362
534 -61 6 -463 13 -468 8z"/>
</g>
</svg>
