<svg xmlns="http://www.w3.org/2000/svg" xmlns:xlink="http://www.w3.org/1999/xlink" width="97px" height="88px" viewBox="0 0 97 88" version="1.1">
    <title>uk_logo</title>
    <g id="Page-1" stroke="none" stroke-width="1" fill="none" fill-rule="evenodd">
        <g id="Combined-Shape-2" transform="translate(0.504000, 0.120000)" fill="#212121" stroke="#000000">
            <path d="M66.2964269,18.88 C75.2185187,18.88 82.3156371,21.2973107 87.5877823,26.131932 C92.7281238,30.8456878 95.3625488,37.6575773 95.4910574,46.5676005 L95.496,47.2571252 L95.496,85.7238949 L85.8979922,85.7238949 L85.8979922,48.1399691 L85.8925796,47.4984047 C85.780719,40.9185409 83.9350193,35.8773725 80.3554806,32.3748995 C76.9139798,29.0074926 72.1043263,27.2082737 65.92652,26.9772428 L65.9246731,58.5028748 C65.9246731,67.7517156 63.2886005,74.7934467 58.0164554,79.628068 C52.7443102,84.4626893 45.6471917,86.88 36.7251,86.88 C30.5967945,86.88 25.2119967,85.7659351 20.5707065,83.5378053 C16.1312116,81.4065506 12.6193443,78.4483203 10.0351047,74.6631142 L9.6884582,74.1418238 L9.6884582,86.3755178 L0.496,86.3755178 L0.496,20.0361051 L10.0940078,20.0361051 L10.0940078,54.8453787 C10.0940078,62.3285317 12.3245308,68.1931376 16.7855767,72.4391963 C20.2487411,75.7354636 24.6759626,77.7522646 30.0672411,78.4895993 L30.0673269,19.3844822 L39.2597851,19.3844822 L39.2597851,31.6181762 L39.6064317,31.0968858 C42.1906712,27.3116797 45.7025385,24.3534494 50.1420334,22.2221947 C54.7833236,19.9940649 60.1681214,18.88 66.2964269,18.88 Z M56.3270089,0.915121897 C52.4063047,1.92425038 49.0829362,3.72614432 46.3569036,6.32080371 C42.0270649,10.4419784 39.7984715,16.0878916 39.6711233,23.2585435 L39.6653348,23.9146213 L39.6662797,51.4902391 C44.2780017,50.8267205 47.9839597,49.1250076 50.7841537,46.3851005 C54.3636924,42.8826275 56.209392,37.8414591 56.3212526,31.2615953 L56.3266652,30.6200309 L56.3270089,0.915121897 Z" id="Shape"/>
        </g>
    </g>
</svg>